<svg version="1.1" id="Layer_1" xmlns="http://www.w3.org/2000/svg" xmlns:xlink="http://www.w3.org/1999/xlink" x="0px" y="0px"
	 width="100%" viewBox="0 0 700 700" enable-background="new 0 0 700 700" xml:space="preserve">
<path fill="#010101" opacity="1.000000" stroke="none" 
	d="
M522.354858,644.346436 
	C511.926147,655.314575 499.309326,662.376587 486.042145,668.369568 
	C468.529968,676.280151 450.230103,681.865479 431.558289,686.291931 
	C428.606415,686.991699 425.639893,687.237854 422.629791,686.936890 
	C413.376648,686.012024 405.973541,679.632324 403.821167,670.748352 
	C401.722046,662.084045 405.234558,653.151184 412.733459,648.010132 
	C416.379333,645.510681 420.515015,644.254089 424.735382,643.218567 
	C439.979187,639.478333 454.890747,634.748779 469.218964,628.287842 
	C476.078308,625.194824 482.668304,621.597717 488.427185,616.718506 
	C493.656738,612.287720 493.368378,607.178894 487.805328,603.076355 
	C484.415161,600.576294 480.446472,599.225464 476.491638,597.923340 
	C458.505371,592.001038 439.897064,589.313538 421.147125,587.435974 
	C396.822266,585.000000 373.862396,578.054749 352.208771,566.759033 
	C349.289185,565.236023 346.283997,564.781494 343.045013,565.043701 
	C329.399475,566.148254 315.752747,566.134644 302.096924,565.099487 
	C297.048462,564.716736 292.227142,563.653442 287.655792,561.478516 
	C277.128418,556.469788 266.685852,551.295044 257.196136,544.447021 
	C250.611649,539.695435 245.654312,533.309998 241.274323,526.672607 
	C226.207123,503.840179 217.569092,479.028992 219.859192,451.239807 
	C221.282684,433.966309 225.528702,417.451996 234.061798,402.219360 
	C234.913040,400.699829 235.454330,399.251190 235.097610,397.497192 
	C230.722382,375.982880 234.830185,355.066772 239.694855,334.233063 
	C242.840607,320.760895 247.341797,307.684875 251.538605,294.513489 
	C262.606293,259.778564 275.135162,225.568619 288.013885,191.479584 
	C288.760803,189.502563 289.135803,188.066254 287.316925,186.164703 
	C272.048126,170.201920 261.678558,151.772278 260.060181,129.291855 
	C259.081238,115.693611 258.648071,102.177032 260.217438,88.445457 
	C261.369385,78.365936 259.097748,67.900551 258.405670,57.603512 
	C257.511841,44.304871 256.664978,31.003046 255.819244,17.701237 
	C255.738342,16.428804 255.808441,15.146771 255.808441,13.974031 
	C257.728851,13.391067 258.698273,14.564398 259.753662,15.215615 
	C279.737732,27.546404 300.088226,39.300850 319.256683,52.918324 
	C320.469391,53.779854 321.524292,54.688560 323.299744,54.087124 
	C340.856354,48.139732 358.783508,49.067776 376.413818,52.844337 
	C381.159149,53.860825 383.583038,52.831699 386.844879,50.608257 
	C405.708954,37.749599 425.328003,26.086308 444.814148,14.214211 
	C445.331970,13.898719 445.908447,13.679554 447.313904,13.003621 
	C446.789124,21.830214 446.382416,29.885597 445.816620,37.929794 
	C444.706207,53.717400 443.535217,69.500923 442.326965,85.281364 
	C441.989655,89.687141 443.759674,93.797295 443.863312,98.136482 
	C444.170135,110.985809 443.843445,123.820465 441.928345,136.533096 
	C439.016754,155.860519 429.052185,171.654587 416.142303,185.761612 
	C414.375366,187.692459 413.882141,188.940292 414.795013,191.315674 
	C425.248352,218.516571 435.525208,245.802658 444.509583,273.513367 
	C453.888000,302.439423 464.799103,331.010132 468.418365,361.525635 
	C469.797394,373.152466 470.461548,384.770264 468.018341,396.345520 
	C467.549133,398.568726 467.925262,400.436829 468.977448,402.526520 
	C487.872803,440.053070 488.811432,477.565308 468.574829,514.966187 
	C462.282654,526.595276 454.935791,537.411804 444.271332,545.717590 
	C445.710541,547.337463 447.673523,546.844849 449.355225,547.126038 
	C466.478241,549.989136 483.423309,553.515930 499.552216,560.187439 
	C515.050110,566.597900 526.792786,576.940247 532.585022,592.982849 
	C539.413208,611.894714 536.001526,629.020447 522.354858,644.346436 
z"/>
</svg>